<svg width="44" height="40" viewBox="0 0 44 40" fill="none" xmlns="http://www.w3.org/2000/svg">
<g id="logo" clip-path="url(#clip0_40_1740)">
<g id="g8">
<path id="path170" d="M43.9407 39.4565H42.5684V38.0652H43.9407V39.4565Z" fill="#ECD979"/>
<path id="path172" d="M42.5686 39.4565H41.1963V38.0652H42.5686V39.4565Z" fill="#ECD979"/>
<path id="path174" d="M37.0794 39.4565H35.707V38.0652H37.0794V39.4565Z" fill="#ECD979"/>
<path id="path176" d="M35.7073 39.4565H34.335V38.0652H35.7073V39.4565Z" fill="#ECD979"/>
<path id="path178" d="M34.3352 39.4565H32.9629V38.0652H34.3352V39.4565Z" fill="#ECD979"/>
<path id="path180" d="M26.1008 39.4565H24.7285V38.0652H26.1008V39.4565Z" fill="#ECD979"/>
<path id="path182" d="M17.8674 39.4565H16.4951V38.0652H17.8674V39.4565Z" fill="#ECD979"/>
<path id="path184" d="M9.63306 39.4565H8.26074V38.0652H9.63306V39.4565Z" fill="#ECD979"/>
<path id="path186" d="M8.26099 39.4565H6.88867V38.0652H8.26099V39.4565Z" fill="#ECD979"/>
<path id="path188" d="M6.88892 39.4565H5.5166V38.0652H6.88892V39.4565Z" fill="#ECD979"/>
<path id="path190" d="M1.39966 39.4565H0.0273438V38.0652H1.39966V39.4565Z" fill="#ECD979"/>
<path id="path192" d="M43.9407 38.0652H42.5684V36.6739H43.9407V38.0652Z" fill="#ECD979"/>
<path id="path194" d="M38.4514 38.0652H37.0791V36.6739H38.4514V38.0652Z" fill="#ECD979"/>
<path id="path196" d="M37.0794 38.0652H35.707V36.6739H37.0794V38.0652Z" fill="#ECD979"/>
<path id="path198" d="M35.7073 38.0652H34.335V36.6739H35.7073V38.0652Z" fill="#ECD979"/>
<path id="path200" d="M26.1008 38.0652H24.7285V36.6739H26.1008V38.0652Z" fill="#ECD979"/>
<path id="path202" d="M24.7288 38.0652H23.3564V36.6739H24.7288V38.0652Z" fill="#ECD979"/>
<path id="path204" d="M19.2395 38.0652H17.8672V36.6739H19.2395V38.0652Z" fill="#ECD979"/>
<path id="path206" d="M17.8674 38.0652H16.4951V36.6739H17.8674V38.0652Z" fill="#ECD979"/>
<path id="path208" d="M8.26099 38.0652H6.88867V36.6739H8.26099V38.0652Z" fill="#ECD979"/>
<path id="path210" d="M6.88892 38.0652H5.5166V36.6739H6.88892V38.0652Z" fill="#ECD979"/>
<path id="path212" d="M5.51685 38.0652H4.14453V36.6739H5.51685V38.0652Z" fill="#ECD979"/>
<path id="path214" d="M39.8245 36.6739H38.4521V35.2826H39.8245V36.6739Z" fill="#ECD979"/>
<path id="path216" d="M38.4514 36.6739H37.0791V35.2826H38.4514V36.6739Z" fill="#ECD979"/>
<path id="path218" d="M37.0794 36.6739H35.707V35.2826H37.0794V36.6739Z" fill="#ECD979"/>
<path id="path220" d="M26.1008 36.6739H24.7285V35.2826H26.1008V36.6739Z" fill="#ECD979"/>
<path id="path222" d="M24.7288 36.6739H23.3564V35.2826H24.7288V36.6739Z" fill="#ECD979"/>
<path id="path224" d="M23.3557 36.6739H21.9834V35.2826H23.3557V36.6739Z" fill="#ECD979"/>
<path id="path226" d="M20.6116 36.6739H19.2393V35.2826H20.6116V36.6739Z" fill="#ECD979"/>
<path id="path228" d="M19.2395 36.6739H17.8672V35.2826H19.2395V36.6739Z" fill="#ECD979"/>
<path id="path230" d="M17.8674 36.6739H16.4951V35.2826H17.8674V36.6739Z" fill="#ECD979"/>
<path id="path232" d="M6.88892 36.6739H5.5166V35.2826H6.88892V36.6739Z" fill="#ECD979"/>
<path id="path234" d="M5.51685 36.6739H4.14453V35.2826H5.51685V36.6739Z" fill="#ECD979"/>
<path id="path236" d="M4.1438 36.6739H2.77148V35.2826H4.1438V36.6739Z" fill="#ECD979"/>
<path id="path238" d="M41.1965 35.2826H39.8242V33.8913H41.1965V35.2826Z" fill="#ECD979"/>
<path id="path240" d="M39.8245 35.2826H38.4521V33.8913H39.8245V35.2826Z" fill="#ECD979"/>
<path id="path242" d="M38.4514 35.2826H37.0791V33.8913H38.4514V35.2826Z" fill="#ECD979"/>
<path id="path244" d="M31.5901 35.2826H30.2178V33.8913H31.5901V35.2826Z" fill="#ECD979"/>
<path id="path246" d="M30.218 35.2826H28.8457V33.8913H30.218V35.2826Z" fill="#ECD979"/>
<path id="path248" d="M28.846 35.2826H27.4736V33.8913H28.846V35.2826Z" fill="#ECD979"/>
<path id="path250" d="M24.7288 35.2826H23.3564V33.8913H24.7288V35.2826Z" fill="#ECD979"/>
<path id="path252" d="M23.3557 35.2826H21.9834V33.8913H23.3557V35.2826Z" fill="#ECD979"/>
<path id="path254" d="M20.6116 35.2826H19.2393V33.8913H20.6116V35.2826Z" fill="#ECD979"/>
<path id="path256" d="M19.2395 35.2826H17.8672V33.8913H19.2395V35.2826Z" fill="#ECD979"/>
<path id="path258" d="M15.1223 35.2826H13.75V33.8913H15.1223V35.2826Z" fill="#ECD979"/>
<path id="path260" d="M13.7502 35.2826H12.3779V33.8913H13.7502V35.2826Z" fill="#ECD979"/>
<path id="path262" d="M12.3782 35.2826H11.0059V33.8913H12.3782V35.2826Z" fill="#ECD979"/>
<path id="path264" d="M5.51685 35.2826H4.14453V33.8913H5.51685V35.2826Z" fill="#ECD979"/>
<path id="path266" d="M4.1438 35.2826H2.77148V33.8913H4.1438V35.2826Z" fill="#ECD979"/>
<path id="path268" d="M2.77173 35.2826H1.39941V33.8913H2.77173V35.2826Z" fill="#ECD979"/>
<path id="path270" d="M42.5686 33.8913H41.1963V32.5H42.5686V33.8913Z" fill="#ECD979"/>
<path id="path272" d="M41.1965 33.8913H39.8242V32.5H41.1965V33.8913Z" fill="#ECD979"/>
<path id="path274" d="M39.8245 33.8913H38.4521V32.5H39.8245V33.8913Z" fill="#ECD979"/>
<path id="path276" d="M30.218 33.8913H28.8457V32.5H30.218V33.8913Z" fill="#ECD979"/>
<path id="path278" d="M28.846 33.8913H27.4736V32.5H28.846V33.8913Z" fill="#ECD979"/>
<path id="path280" d="M27.4729 33.8913H26.1006V32.5H27.4729V33.8913Z" fill="#ECD979"/>
<path id="path282" d="M23.3557 33.8913H21.9834V32.5H23.3557V33.8913Z" fill="#ECD979"/>
<path id="path284" d="M20.6116 33.8913H19.2393V32.5H20.6116V33.8913Z" fill="#ECD979"/>
<path id="path286" d="M16.4954 33.8913H15.123V32.5H16.4954V33.8913Z" fill="#ECD979"/>
<path id="path288" d="M15.1223 33.8913H13.75V32.5H15.1223V33.8913Z" fill="#ECD979"/>
<path id="path290" d="M13.7502 33.8913H12.3779V32.5H13.7502V33.8913Z" fill="#ECD979"/>
<path id="path292" d="M4.1438 33.8913H2.77148V32.5H4.1438V33.8913Z" fill="#ECD979"/>
<path id="path294" d="M2.77173 33.8913H1.39941V32.5H2.77173V33.8913Z" fill="#ECD979"/>
<path id="path296" d="M1.39966 33.8913H0.0273438V32.5H1.39966V33.8913Z" fill="#ECD979"/>
<path id="path298" d="M42.5686 32.5H41.1963V31.1087H42.5686V32.5Z" fill="#ECD979"/>
<path id="path300" d="M41.1965 32.5H39.8242V31.1087H41.1965V32.5Z" fill="#ECD979"/>
<path id="path302" d="M28.846 32.5H27.4736V31.1087H28.846V32.5Z" fill="#ECD979"/>
<path id="path304" d="M27.4729 32.5H26.1006V31.1087H27.4729V32.5Z" fill="#ECD979"/>
<path id="path306" d="M26.1008 32.5H24.7285V31.1087H26.1008V32.5Z" fill="#ECD979"/>
<path id="path308" d="M17.8674 32.5H16.4951V31.1087H17.8674V32.5Z" fill="#ECD979"/>
<path id="path310" d="M16.4954 32.5H15.123V31.1087H16.4954V32.5Z" fill="#ECD979"/>
<path id="path312" d="M15.1223 32.5H13.75V31.1087H15.1223V32.5Z" fill="#ECD979"/>
<path id="path314" d="M2.77173 32.5H1.39941V31.1087H2.77173V32.5Z" fill="#ECD979"/>
<path id="path316" d="M1.39966 32.5H0.0273438V31.1087H1.39966V32.5Z" fill="#ECD979"/>
<path id="path318" d="M42.5686 31.1087H41.1963V29.7174H42.5686V31.1087Z" fill="#ECD979"/>
<path id="path320" d="M35.7073 31.1087H34.335V29.7174H35.7073V31.1087Z" fill="#ECD979"/>
<path id="path322" d="M23.3557 31.1087H21.9834V29.7174H23.3557V31.1087Z" fill="#ECD979"/>
<path id="path324" d="M20.6116 31.1087H19.2393V29.7174H20.6116V31.1087Z" fill="#ECD979"/>
<path id="path326" d="M8.26099 31.1087H6.88867V29.7174H8.26099V31.1087Z" fill="#ECD979"/>
<path id="path328" d="M1.39966 31.1087H0.0273438V29.7174H1.39966V31.1087Z" fill="#ECD979"/>
<path id="path330" d="M35.7073 29.7174H34.335V28.3261H35.7073V29.7174Z" fill="#ECD979"/>
<path id="path332" d="M34.3352 29.7174H32.9629V28.3261H34.3352V29.7174Z" fill="#ECD979"/>
<path id="path334" d="M24.7288 29.7174H23.3564V28.3261H24.7288V29.7174Z" fill="#ECD979"/>
<path id="path336" d="M23.3557 29.7174H21.9834V28.3261H23.3557V29.7174Z" fill="#ECD979"/>
<path id="path338" d="M20.6116 29.7174H19.2393V28.3261H20.6116V29.7174Z" fill="#ECD979"/>
<path id="path340" d="M19.2395 29.7174H17.8672V28.3261H19.2395V29.7174Z" fill="#ECD979"/>
<path id="path342" d="M9.63306 29.7174H8.26074V28.3261H9.63306V29.7174Z" fill="#ECD979"/>
<path id="path344" d="M8.26099 29.7174H6.88867V28.3261H8.26099V29.7174Z" fill="#ECD979"/>
<path id="path346" d="M35.7073 28.3261H34.335V26.9348H35.7073V28.3261Z" fill="#ECD979"/>
<path id="path348" d="M34.3352 28.3261H32.9629V26.9348H34.3352V28.3261Z" fill="#ECD979"/>
<path id="path350" d="M32.9622 28.3261H31.5898V26.9348H32.9622V28.3261Z" fill="#ECD979"/>
<path id="path352" d="M26.1008 28.3261H24.7285V26.9348H26.1008V28.3261Z" fill="#ECD979"/>
<path id="path354" d="M24.7288 28.3261H23.3564V26.9348H24.7288V28.3261Z" fill="#ECD979"/>
<path id="path356" d="M19.2395 28.3261H17.8672V26.9348H19.2395V28.3261Z" fill="#ECD979"/>
<path id="path358" d="M17.8674 28.3261H16.4951V26.9348H17.8674V28.3261Z" fill="#ECD979"/>
<path id="path360" d="M11.0061 28.3261H9.63379V26.9348H11.0061V28.3261Z" fill="#ECD979"/>
<path id="path362" d="M9.63306 28.3261H8.26074V26.9348H9.63306V28.3261Z" fill="#ECD979"/>
<path id="path364" d="M8.26099 28.3261H6.88867V26.9348H8.26099V28.3261Z" fill="#ECD979"/>
<path id="path366" d="M34.3352 26.9348H32.9629V25.5435H34.3352V26.9348Z" fill="#ECD979"/>
<path id="path368" d="M32.9622 26.9348H31.5898V25.5435H32.9622V26.9348Z" fill="#ECD979"/>
<path id="path370" d="M27.4729 26.9348H26.1006V25.5435H27.4729V26.9348Z" fill="#ECD979"/>
<path id="path372" d="M26.1008 26.9348H24.7285V25.5435H26.1008V26.9348Z" fill="#ECD979"/>
<path id="path374" d="M17.8674 26.9348H16.4951V25.5435H17.8674V26.9348Z" fill="#ECD979"/>
<path id="path376" d="M16.4954 26.9348H15.123V25.5435H16.4954V26.9348Z" fill="#ECD979"/>
<path id="path378" d="M11.0061 26.9348H9.63379V25.5435H11.0061V26.9348Z" fill="#ECD979"/>
<path id="path380" d="M9.63306 26.9348H8.26074V25.5435H9.63306V26.9348Z" fill="#ECD979"/>
<path id="path382" d="M39.8245 25.5435H38.4521V24.1522H39.8245V25.5435Z" fill="#ECD979"/>
<path id="path384" d="M38.4514 25.5435H37.0791V24.1522H38.4514V25.5435Z" fill="#ECD979"/>
<path id="path386" d="M37.0794 25.5435H35.707V24.1522H37.0794V25.5435Z" fill="#ECD979"/>
<path id="path388" d="M32.9622 25.5435H31.5898V24.1522H32.9622V25.5435Z" fill="#ECD979"/>
<path id="path390" d="M28.846 25.5435H27.4736V24.1522H28.846V25.5435Z" fill="#ECD979"/>
<path id="path392" d="M27.4729 25.5435H26.1006V24.1522H27.4729V25.5435Z" fill="#ECD979"/>
<path id="path394" d="M16.4954 25.5435H15.123V24.1522H16.4954V25.5435Z" fill="#ECD979"/>
<path id="path396" d="M15.1223 25.5435H13.75V24.1522H15.1223V25.5435Z" fill="#ECD979"/>
<path id="path398" d="M11.0061 25.5435H9.63379V24.1522H11.0061V25.5435Z" fill="#ECD979"/>
<path id="path400" d="M6.88892 25.5435H5.5166V24.1522H6.88892V25.5435Z" fill="#ECD979"/>
<path id="path402" d="M5.51685 25.5435H4.14453V24.1522H5.51685V25.5435Z" fill="#ECD979"/>
<path id="path404" d="M4.1438 25.5435H2.77148V24.1522H4.1438V25.5435Z" fill="#ECD979"/>
<path id="path406" d="M43.9407 24.1522H42.5684V22.7609H43.9407V24.1522Z" fill="#ECD979"/>
<path id="path408" d="M38.4514 24.1522H37.0791V22.7609H38.4514V24.1522Z" fill="#ECD979"/>
<path id="path410" d="M37.0794 24.1522H35.707V22.7609H37.0794V24.1522Z" fill="#ECD979"/>
<path id="path412" d="M35.7073 24.1522H34.335V22.7609H35.7073V24.1522Z" fill="#ECD979"/>
<path id="path414" d="M30.218 24.1522H28.8457V22.7609H30.218V24.1522Z" fill="#ECD979"/>
<path id="path416" d="M28.846 24.1522H27.4736V22.7609H28.846V24.1522Z" fill="#ECD979"/>
<path id="path418" d="M15.1223 24.1522H13.75V22.7609H15.1223V24.1522Z" fill="#ECD979"/>
<path id="path420" d="M13.7502 24.1522H12.3779V22.7609H13.7502V24.1522Z" fill="#ECD979"/>
<path id="path422" d="M8.26099 24.1522H6.88867V22.7609H8.26099V24.1522Z" fill="#ECD979"/>
<path id="path424" d="M6.88892 24.1522H5.5166V22.7609H6.88892V24.1522Z" fill="#ECD979"/>
<path id="path426" d="M5.51685 24.1522H4.14453V22.7609H5.51685V24.1522Z" fill="#ECD979"/>
<path id="path428" d="M43.9407 22.7609H42.5684V21.3696H43.9407V22.7609Z" fill="#ECD979"/>
<path id="path430" d="M42.5686 22.7609H41.1963V21.3696H42.5686V22.7609Z" fill="#ECD979"/>
<path id="path432" d="M37.0794 22.7609H35.707V21.3696H37.0794V22.7609Z" fill="#ECD979"/>
<path id="path434" d="M35.7073 22.7609H34.335V21.3696H35.7073V22.7609Z" fill="#ECD979"/>
<path id="path436" d="M34.3352 22.7609H32.9629V21.3696H34.3352V22.7609Z" fill="#ECD979"/>
<path id="path438" d="M31.5901 22.7609H30.2178V21.3696H31.5901V22.7609Z" fill="#ECD979"/>
<path id="path440" d="M30.218 22.7609H28.8457V21.3696H30.218V22.7609Z" fill="#ECD979"/>
<path id="path442" d="M21.9846 22.7609H20.6123V21.3696H21.9846V22.7609Z" fill="#ECD979"/>
<path id="path444" d="M13.7502 22.7609H12.3779V21.3696H13.7502V22.7609Z" fill="#ECD979"/>
<path id="path446" d="M12.3782 22.7609H11.0059V21.3696H12.3782V22.7609Z" fill="#ECD979"/>
<path id="path448" d="M9.63306 22.7609H8.26074V21.3696H9.63306V22.7609Z" fill="#ECD979"/>
<path id="path450" d="M8.26099 22.7609H6.88867V21.3696H8.26099V22.7609Z" fill="#ECD979"/>
<path id="path452" d="M6.88892 22.7609H5.5166V21.3696H6.88892V22.7609Z" fill="#ECD979"/>
<path id="path454" d="M1.37232 21.3696H0V19.9783H1.37232V21.3696Z" fill="#ECD979"/>
<path id="path456" d="M2.77173 21.3696H1.39941V19.9783H2.77173V21.3696Z" fill="#ECD979"/>
<path id="path458" d="M1.37232 22.7609H0V21.3696H1.37232V22.7609Z" fill="#ECD979"/>
<path id="path460" d="M1.37232 19.9783H0V18.587H1.37232V19.9783Z" fill="#ECD979"/>
<path id="path462" d="M43.9407 21.3696H42.5684V19.9783H43.9407V21.3696Z" fill="#ECD979"/>
<path id="path464" d="M42.5686 21.3696H41.1963V19.9783H42.5686V21.3696Z" fill="#ECD979"/>
<path id="path466" d="M41.1965 21.3696H39.8242V19.9783H41.1965V21.3696Z" fill="#ECD979"/>
<path id="path468" d="M23.3557 21.3696H21.9834V19.9783H23.3557V21.3696Z" fill="#ECD979"/>
<path id="path470" d="M21.9846 21.3696H20.6123V19.9783H21.9846V21.3696Z" fill="#ECD979"/>
<path id="path472" d="M20.6116 21.3696H19.2393V19.9783H20.6116V21.3696Z" fill="#ECD979"/>
<path id="path474" d="M43.9407 19.9783H42.5684V18.587H43.9407V19.9783Z" fill="#ECD979"/>
<path id="path476" d="M42.5686 19.9783H41.1963V18.587H42.5686V19.9783Z" fill="#ECD979"/>
<path id="path478" d="M37.0794 19.9783H35.707V18.587H37.0794V19.9783Z" fill="#ECD979"/>
<path id="path480" d="M35.7073 19.9783H34.335V18.587H35.7073V19.9783Z" fill="#ECD979"/>
<path id="path482" d="M34.3352 19.9783H32.9629V18.587H34.3352V19.9783Z" fill="#ECD979"/>
<path id="path484" d="M31.5901 19.9783H30.2178V18.587H31.5901V19.9783Z" fill="#ECD979"/>
<path id="path486" d="M30.218 19.9783H28.8457V18.587H30.218V19.9783Z" fill="#ECD979"/>
<path id="path488" d="M21.9846 19.9783H20.6123V18.587H21.9846V19.9783Z" fill="#ECD979"/>
<path id="path490" d="M13.7502 19.9783H12.3779V18.587H13.7502V19.9783Z" fill="#ECD979"/>
<path id="path492" d="M12.3782 19.9783H11.0059V18.587H12.3782V19.9783Z" fill="#ECD979"/>
<path id="path494" d="M9.63306 19.9783H8.26074V18.587H9.63306V19.9783Z" fill="#ECD979"/>
<path id="path496" d="M8.26099 19.9783H6.88867V18.587H8.26099V19.9783Z" fill="#ECD979"/>
<path id="path498" d="M6.88892 19.9783H5.5166V18.587H6.88892V19.9783Z" fill="#ECD979"/>
<path id="path500" d="M43.9407 18.5869H42.5684V17.1956H43.9407V18.5869Z" fill="#ECD979"/>
<path id="path502" d="M38.4514 18.5869H37.0791V17.1956H38.4514V18.5869Z" fill="#ECD979"/>
<path id="path504" d="M37.0794 18.5869H35.707V17.1956H37.0794V18.5869Z" fill="#ECD979"/>
<path id="path506" d="M35.7073 18.5869H34.335V17.1956H35.7073V18.5869Z" fill="#ECD979"/>
<path id="path508" d="M30.218 18.5869H28.8457V17.1956H30.218V18.5869Z" fill="#ECD979"/>
<path id="path510" d="M28.846 18.5869H27.4736V17.1956H28.846V18.5869Z" fill="#ECD979"/>
<path id="path512" d="M15.1223 18.5869H13.75V17.1956H15.1223V18.5869Z" fill="#ECD979"/>
<path id="path514" d="M13.7502 18.5869H12.3779V17.1956H13.7502V18.5869Z" fill="#ECD979"/>
<path id="path516" d="M8.26099 18.5869H6.88867V17.1956H8.26099V18.5869Z" fill="#ECD979"/>
<path id="path518" d="M6.88892 18.5869H5.5166V17.1956H6.88892V18.5869Z" fill="#ECD979"/>
<path id="path520" d="M5.51685 18.5869H4.14453V17.1956H5.51685V18.5869Z" fill="#ECD979"/>
<path id="path522" d="M39.8245 17.1956H38.4521V15.8043H39.8245V17.1956Z" fill="#ECD979"/>
<path id="path524" d="M38.4514 17.1956H37.0791V15.8043H38.4514V17.1956Z" fill="#ECD979"/>
<path id="path526" d="M37.0794 17.1956H35.707V15.8043H37.0794V17.1956Z" fill="#ECD979"/>
<path id="path528" d="M32.9622 17.1956H31.5898V15.8043H32.9622V17.1956Z" fill="#ECD979"/>
<path id="path530" d="M28.846 17.1956H27.4736V15.8043H28.846V17.1956Z" fill="#ECD979"/>
<path id="path532" d="M27.4729 17.1956H26.1006V15.8043H27.4729V17.1956Z" fill="#ECD979"/>
<path id="path534" d="M16.4954 17.1956H15.123V15.8043H16.4954V17.1956Z" fill="#ECD979"/>
<path id="path536" d="M15.1223 17.1956H13.75V15.8043H15.1223V17.1956Z" fill="#ECD979"/>
<path id="path538" d="M11.0061 17.1956H9.63379V15.8043H11.0061V17.1956Z" fill="#ECD979"/>
<path id="path540" d="M6.88892 17.1956H5.5166V15.8043H6.88892V17.1956Z" fill="#ECD979"/>
<path id="path542" d="M5.51685 17.1956H4.14453V15.8043H5.51685V17.1956Z" fill="#ECD979"/>
<path id="path544" d="M4.1438 17.1956H2.77148V15.8043H4.1438V17.1956Z" fill="#ECD979"/>
<path id="path546" d="M34.3352 15.8044H32.9629V14.413H34.3352V15.8044Z" fill="#ECD979"/>
<path id="path548" d="M32.9622 15.8044H31.5898V14.413H32.9622V15.8044Z" fill="#ECD979"/>
<path id="path550" d="M27.4729 15.8044H26.1006V14.413H27.4729V15.8044Z" fill="#ECD979"/>
<path id="path552" d="M26.1008 15.8044H24.7285V14.413H26.1008V15.8044Z" fill="#ECD979"/>
<path id="path554" d="M17.8674 15.8044H16.4951V14.413H17.8674V15.8044Z" fill="#ECD979"/>
<path id="path556" d="M16.4954 15.8044H15.123V14.413H16.4954V15.8044Z" fill="#ECD979"/>
<path id="path558" d="M11.0061 15.8044H9.63379V14.413H11.0061V15.8044Z" fill="#ECD979"/>
<path id="path560" d="M9.63306 15.8044H8.26074V14.413H9.63306V15.8044Z" fill="#ECD979"/>
<path id="path562" d="M35.7073 14.413H34.335V13.0217H35.7073V14.413Z" fill="#ECD979"/>
<path id="path564" d="M34.3352 14.413H32.9629V13.0217H34.3352V14.413Z" fill="#ECD979"/>
<path id="path566" d="M32.9622 14.413H31.5898V13.0217H32.9622V14.413Z" fill="#ECD979"/>
<path id="path568" d="M26.1008 14.413H24.7285V13.0217H26.1008V14.413Z" fill="#ECD979"/>
<path id="path570" d="M24.7288 14.413H23.3564V13.0217H24.7288V14.413Z" fill="#ECD979"/>
<path id="path572" d="M19.2395 14.413H17.8672V13.0217H19.2395V14.413Z" fill="#ECD979"/>
<path id="path574" d="M17.8674 14.413H16.4951V13.0217H17.8674V14.413Z" fill="#ECD979"/>
<path id="path576" d="M11.0061 14.413H9.63379V13.0217H11.0061V14.413Z" fill="#ECD979"/>
<path id="path578" d="M9.63306 14.413H8.26074V13.0217H9.63306V14.413Z" fill="#ECD979"/>
<path id="path580" d="M8.26099 14.413H6.88867V13.0217H8.26099V14.413Z" fill="#ECD979"/>
<path id="path582" d="M35.7073 13.0217H34.335V11.6304H35.7073V13.0217Z" fill="#ECD979"/>
<path id="path584" d="M34.3352 13.0217H32.9629V11.6304H34.3352V13.0217Z" fill="#ECD979"/>
<path id="path586" d="M24.7288 13.0217H23.3564V11.6304H24.7288V13.0217Z" fill="#ECD979"/>
<path id="path588" d="M23.3557 13.0217H21.9834V11.6304H23.3557V13.0217Z" fill="#ECD979"/>
<path id="path590" d="M20.6116 13.0217H19.2393V11.6304H20.6116V13.0217Z" fill="#ECD979"/>
<path id="path592" d="M19.2395 13.0217H17.8672V11.6304H19.2395V13.0217Z" fill="#ECD979"/>
<path id="path594" d="M9.63306 13.0217H8.26074V11.6304H9.63306V13.0217Z" fill="#ECD979"/>
<path id="path596" d="M8.26099 13.0217H6.88867V11.6304H8.26099V13.0217Z" fill="#ECD979"/>
<path id="path598" d="M35.7073 11.6304H34.335V10.2391H35.7073V11.6304Z" fill="#ECD979"/>
<path id="path600" d="M23.3557 11.6304H21.9834V10.2391H23.3557V11.6304Z" fill="#ECD979"/>
<path id="path602" d="M20.6116 11.6304H19.2393V10.2391H20.6116V11.6304Z" fill="#ECD979"/>
<path id="path604" d="M8.26099 11.6304H6.88867V10.2391H8.26099V11.6304Z" fill="#ECD979"/>
<path id="path606" d="M42.5686 10.2391H41.1963V8.8478H42.5686V10.2391Z" fill="#ECD979"/>
<path id="path608" d="M1.39966 10.2391H0.0273438V8.8478H1.39966V10.2391Z" fill="#ECD979"/>
<path id="path610" d="M42.5686 8.84781H41.1963V7.4565H42.5686V8.84781Z" fill="#ECD979"/>
<path id="path612" d="M41.1965 8.84781H39.8242V7.4565H41.1965V8.84781Z" fill="#ECD979"/>
<path id="path614" d="M28.846 8.84781H27.4736V7.4565H28.846V8.84781Z" fill="#ECD979"/>
<path id="path616" d="M27.4729 8.84781H26.1006V7.4565H27.4729V8.84781Z" fill="#ECD979"/>
<path id="path618" d="M26.1008 8.84781H24.7285V7.4565H26.1008V8.84781Z" fill="#ECD979"/>
<path id="path620" d="M17.8674 8.84781H16.4951V7.4565H17.8674V8.84781Z" fill="#ECD979"/>
<path id="path622" d="M16.4954 8.84781H15.123V7.4565H16.4954V8.84781Z" fill="#ECD979"/>
<path id="path624" d="M15.1223 8.84781H13.75V7.4565H15.1223V8.84781Z" fill="#ECD979"/>
<path id="path626" d="M2.77173 8.84781H1.39941V7.4565H2.77173V8.84781Z" fill="#ECD979"/>
<path id="path628" d="M1.39966 8.84781H0.0273438V7.4565H1.39966V8.84781Z" fill="#ECD979"/>
<path id="path630" d="M42.5686 7.45651H41.1963V6.06521H42.5686V7.45651Z" fill="#ECD979"/>
<path id="path632" d="M41.1965 7.45651H39.8242V6.06521H41.1965V7.45651Z" fill="#ECD979"/>
<path id="path634" d="M39.8245 7.45651H38.4521V6.06521H39.8245V7.45651Z" fill="#ECD979"/>
<path id="path636" d="M30.218 7.45651H28.8457V6.06521H30.218V7.45651Z" fill="#ECD979"/>
<path id="path638" d="M28.846 7.45651H27.4736V6.06521H28.846V7.45651Z" fill="#ECD979"/>
<path id="path640" d="M27.4729 7.45651H26.1006V6.06521H27.4729V7.45651Z" fill="#ECD979"/>
<path id="path642" d="M23.3557 7.45651H21.9834V6.06521H23.3557V7.45651Z" fill="#ECD979"/>
<path id="path644" d="M20.6116 7.45651H19.2393V6.06521H20.6116V7.45651Z" fill="#ECD979"/>
<path id="path646" d="M16.4954 7.45651H15.123V6.06521H16.4954V7.45651Z" fill="#ECD979"/>
<path id="path648" d="M15.1223 7.45651H13.75V6.06521H15.1223V7.45651Z" fill="#ECD979"/>
<path id="path650" d="M13.7502 7.45651H12.3779V6.06521H13.7502V7.45651Z" fill="#ECD979"/>
<path id="path652" d="M4.1438 7.45651H2.77148V6.06521H4.1438V7.45651Z" fill="#ECD979"/>
<path id="path654" d="M2.77173 7.45651H1.39941V6.06521H2.77173V7.45651Z" fill="#ECD979"/>
<path id="path656" d="M1.39966 7.45651H0.0273438V6.06521H1.39966V7.45651Z" fill="#ECD979"/>
<path id="path658" d="M41.1965 6.06522H39.8242V4.67391H41.1965V6.06522Z" fill="#ECD979"/>
<path id="path660" d="M39.8245 6.06522H38.4521V4.67391H39.8245V6.06522Z" fill="#ECD979"/>
<path id="path662" d="M38.4514 6.06522H37.0791V4.67391H38.4514V6.06522Z" fill="#ECD979"/>
<path id="path664" d="M31.5901 6.06522H30.2178V4.67391H31.5901V6.06522Z" fill="#ECD979"/>
<path id="path666" d="M30.218 6.06522H28.8457V4.67391H30.218V6.06522Z" fill="#ECD979"/>
<path id="path668" d="M28.846 6.06522H27.4736V4.67391H28.846V6.06522Z" fill="#ECD979"/>
<path id="path670" d="M24.7288 6.06522H23.3564V4.67391H24.7288V6.06522Z" fill="#ECD979"/>
<path id="path672" d="M23.3557 6.06522H21.9834V4.67391H23.3557V6.06522Z" fill="#ECD979"/>
<path id="path674" d="M20.6116 6.06522H19.2393V4.67391H20.6116V6.06522Z" fill="#ECD979"/>
<path id="path676" d="M19.2395 6.06522H17.8672V4.67391H19.2395V6.06522Z" fill="#ECD979"/>
<path id="path678" d="M15.1223 6.06522H13.75V4.67391H15.1223V6.06522Z" fill="#ECD979"/>
<path id="path680" d="M13.7502 6.06522H12.3779V4.67391H13.7502V6.06522Z" fill="#ECD979"/>
<path id="path682" d="M12.3782 6.06522H11.0059V4.67391H12.3782V6.06522Z" fill="#ECD979"/>
<path id="path684" d="M5.51685 6.06522H4.14453V4.67391H5.51685V6.06522Z" fill="#ECD979"/>
<path id="path686" d="M4.1438 6.06522H2.77148V4.67391H4.1438V6.06522Z" fill="#ECD979"/>
<path id="path688" d="M2.77173 6.06522H1.39941V4.67391H2.77173V6.06522Z" fill="#ECD979"/>
<path id="path690" d="M39.8245 4.67389H38.4521V3.28259H39.8245V4.67389Z" fill="#ECD979"/>
<path id="path692" d="M38.4514 4.67389H37.0791V3.28259H38.4514V4.67389Z" fill="#ECD979"/>
<path id="path694" d="M37.0794 4.67389H35.707V3.28259H37.0794V4.67389Z" fill="#ECD979"/>
<path id="path696" d="M26.1008 4.67389H24.7285V3.28259H26.1008V4.67389Z" fill="#ECD979"/>
<path id="path698" d="M24.7288 4.67389H23.3564V3.28259H24.7288V4.67389Z" fill="#ECD979"/>
<path id="path700" d="M23.3557 4.67389H21.9834V3.28259H23.3557V4.67389Z" fill="#ECD979"/>
<path id="path702" d="M20.6116 4.67389H19.2393V3.28259H20.6116V4.67389Z" fill="#ECD979"/>
<path id="path704" d="M19.2395 4.67389H17.8672V3.28259H19.2395V4.67389Z" fill="#ECD979"/>
<path id="path706" d="M17.8674 4.67389H16.4951V3.28259H17.8674V4.67389Z" fill="#ECD979"/>
<path id="path708" d="M6.88892 4.67389H5.5166V3.28259H6.88892V4.67389Z" fill="#ECD979"/>
<path id="path710" d="M5.51685 4.67389H4.14453V3.28259H5.51685V4.67389Z" fill="#ECD979"/>
<path id="path712" d="M4.1438 4.67389H2.77148V3.28259H4.1438V4.67389Z" fill="#ECD979"/>
<path id="path714" d="M43.9407 3.28259H42.5684V1.89129H43.9407V3.28259Z" fill="#ECD979"/>
<path id="path716" d="M38.4514 3.28259H37.0791V1.89129H38.4514V3.28259Z" fill="#ECD979"/>
<path id="path718" d="M37.0794 3.28259H35.707V1.89129H37.0794V3.28259Z" fill="#ECD979"/>
<path id="path720" d="M35.7073 3.28259H34.335V1.89129H35.7073V3.28259Z" fill="#ECD979"/>
<path id="path722" d="M26.1008 3.28259H24.7285V1.89129H26.1008V3.28259Z" fill="#ECD979"/>
<path id="path724" d="M24.7288 3.28259H23.3564V1.89129H24.7288V3.28259Z" fill="#ECD979"/>
<path id="path726" d="M19.2395 3.28259H17.8672V1.89129H19.2395V3.28259Z" fill="#ECD979"/>
<path id="path728" d="M17.8674 3.28259H16.4951V1.89129H17.8674V3.28259Z" fill="#ECD979"/>
<path id="path730" d="M8.26099 3.28259H6.88867V1.89129H8.26099V3.28259Z" fill="#ECD979"/>
<path id="path732" d="M6.88892 3.28259H5.5166V1.89129H6.88892V3.28259Z" fill="#ECD979"/>
<path id="path734" d="M5.51685 3.28259H4.14453V1.89129H5.51685V3.28259Z" fill="#ECD979"/>
<path id="path736" d="M43.9407 1.8913H42.5684V0.499992H43.9407V1.8913Z" fill="#ECD979"/>
<path id="path738" d="M42.5686 1.8913H41.1963V0.499992H42.5686V1.8913Z" fill="#ECD979"/>
<path id="path740" d="M37.0794 1.8913H35.707V0.499992H37.0794V1.8913Z" fill="#ECD979"/>
<path id="path742" d="M35.7073 1.8913H34.335V0.499992H35.7073V1.8913Z" fill="#ECD979"/>
<path id="path744" d="M34.3352 1.8913H32.9629V0.499992H34.3352V1.8913Z" fill="#ECD979"/>
<path id="path746" d="M26.1008 1.8913H24.7285V0.499992H26.1008V1.8913Z" fill="#ECD979"/>
<path id="path748" d="M17.8674 1.8913H16.4951V0.499992H17.8674V1.8913Z" fill="#ECD979"/>
<path id="path750" d="M9.63306 1.8913H8.26074V0.499992H9.63306V1.8913Z" fill="#ECD979"/>
<path id="path752" d="M8.26099 1.8913H6.88867V0.499992H8.26099V1.8913Z" fill="#ECD979"/>
<path id="path754" d="M6.88892 1.8913H5.5166V0.499992H6.88892V1.8913Z" fill="#ECD979"/>
<path id="path756" d="M1.39966 1.8913H0.0273438V0.499992H1.39966V1.8913Z" fill="#ECD979"/>
</g>
</g>
<defs>
<clipPath id="clip0_40_1740">
<rect width="44" height="39" fill="white" transform="translate(0 0.5)"/>
</clipPath>
</defs>
</svg>
