<svg xmlns="http://www.w3.org/2000/svg" aria-hidden="true" style="position: absolute; width: 0; height: 0; clip-path: inset(100%); clip: rect(0 0 0 0); overflow: hidden;">
  <symbol id="facebook" viewBox="0 0 28 28">
    <path d="M17.0799 4.06014C17.2899 4.06014 17.4999 4.06014 17.9199 4.06014V7.21014C17.7099 7.21014 17.2899 7.21014 16.8699 7.21014C16.4499 7.21014 16.0299 7.21014 15.8199 7.42014C15.6099 7.63014 15.6099 7.84014 15.6099 8.33014C15.6099 8.75014 15.6099 9.03014 15.6099 9.45014H17.9199V12.1101H15.6099V23.6601H12.0399V12.0401H10.1499V9.38014H12.0399V8.47014C12.0399 6.93014 12.2499 5.81014 12.6699 5.32014C13.2999 4.41014 14.5599 3.99014 16.4499 3.99014C16.6599 4.06014 16.8699 4.06014 17.0799 4.06014Z"/>
  </symbol>
    <symbol id="instagram" viewBox="0 0 28 28">
    <g opacity="0.8">
      <path d="M25.1277 9.41145C25.114 8.47139 24.9398 7.53878 24.6065 6.65957C24.0231 5.15821 22.8352 3.97103 21.3313 3.38985C20.4618 3.06325 19.5426 2.88816 18.6122 2.86829C17.4155 2.81489 17.0361 2.79999 13.9986 2.79999C10.961 2.79999 10.5716 2.79999 9.38372 2.86829C8.45454 2.88816 7.5353 3.06325 6.66582 3.38985C5.16196 3.97103 3.97279 5.15821 3.39065 6.65957C3.06351 7.52761 2.88688 8.44532 2.86946 9.37296C2.81598 10.5688 2.7998 10.9476 2.7998 13.9801C2.7998 17.0127 2.7998 17.4001 2.86946 18.5873C2.88812 19.5162 3.06351 20.4326 3.39065 21.3032C3.97404 22.8033 5.16195 23.9905 6.66706 24.5716C7.53281 24.9094 8.45205 25.1006 9.38497 25.1304C10.5828 25.1838 10.9622 25.2 13.9998 25.2C17.0374 25.2 17.4267 25.2 18.6146 25.1304C19.5438 25.1118 20.4631 24.9367 21.3338 24.6101C22.8377 24.0277 24.0256 22.8405 24.609 21.3404C24.9361 20.4711 25.1115 19.5547 25.1301 18.6245C25.1836 17.4299 25.1998 17.0511 25.1998 14.0174C25.1973 10.9848 25.1973 10.5999 25.1277 9.41145ZM13.9911 19.7149C10.8142 19.7149 8.24059 17.1455 8.24059 13.9739C8.24059 10.8023 10.8142 8.23296 13.9911 8.23296C17.1655 8.23296 19.7416 10.8023 19.7416 13.9739C19.7416 17.1455 17.1655 19.7149 13.9911 19.7149ZM19.9705 9.3593C19.2279 9.3593 18.6296 8.76074 18.6296 8.02061C18.6296 7.28049 19.2279 6.68193 19.9705 6.68193C20.7106 6.68193 21.3102 7.28049 21.3102 8.02061C21.3102 8.76074 20.7106 9.3593 19.9705 9.3593Z" />
      <path d="M13.9932 17.479C15.9282 17.479 17.4967 15.9104 17.4967 13.9755C17.4967 12.0406 15.9282 10.472 13.9932 10.472C12.0583 10.472 10.4897 12.0406 10.4897 13.9755C10.4897 15.9104 12.0583 17.479 13.9932 17.479Z" />
    </g>
  </symbol>
  <symbol id="youtube" viewBox="0 0 28 28">
    <g opacity="0.8">
      <path fill-rule="evenodd" clip-rule="evenodd" d="M21.2099 5.24986C20.0199 5.17986 17.5699 5.10986 13.8599 5.10986H13.3699C9.79985 5.10986 7.41989 5.17986 6.22989 5.31986C4.61989 5.45986 3.49985 5.87986 2.86985 6.43986C2.30985 6.92986 1.88987 7.83986 1.74987 9.02986C1.67987 9.79986 1.60986 11.4099 1.60986 13.8599V14.2099C1.60986 16.5199 1.67985 18.1299 1.81985 18.8999C2.02985 20.0199 2.37989 20.8599 3.07989 21.3499C3.77989 21.9099 4.96987 22.2599 6.64987 22.3999C7.83987 22.4699 10.2899 22.5399 13.9999 22.5399H14.4899C18.0599 22.5399 20.4399 22.4699 21.6299 22.3299C23.2399 22.1899 24.3599 21.7699 24.9899 21.2099C25.5499 20.7199 25.9699 19.8099 26.1099 18.6199C26.1799 17.8499 26.2499 16.2399 26.2499 13.7899V13.4399C26.2499 11.1299 26.1799 9.51986 26.0399 8.74986C25.8299 7.62986 25.4799 6.78986 24.7799 6.29986C24.0799 5.73986 22.8899 5.38986 21.2099 5.24986ZM18.4799 13.8599L10.7799 18.4799V9.23986L18.4799 13.8599Z" />
    </g>
  </symbol>
  <symbol id="arrow" viewBox="0 0 24 17" >
    <path d="M20.8244 9.9674C20.694 8.99 20.6096 8.11755 20.5715 7.35006C20.555 6.57005 20.5846 5.89498 20.6604 5.32488L1.69042 16.2772L0.792981 14.7228L19.7629 3.77047C19.2171 3.52637 18.6105 3.20217 17.9433 2.79788C17.2977 2.38106 16.5914 1.88415 15.8244 1.30714L16.9633 0.649629C19.3698 1.66175 21.5707 2.1675 23.5661 2.1669L23.9507 2.83308C22.9382 4.53612 22.2758 6.69506 21.9633 9.30988L20.8244 9.9674Z" />
  </symbol>
  <symbol id="star" viewBox="0 0 49 49" >
    <path d="M23.6329 0.509352C24.0173 -0.159801 24.9827 -0.159801 25.3671 0.509352L28.1847 5.41385C28.4751 5.9195 29.1349 6.07034 29.6163 5.74116L34.3335 2.51517C34.9729 2.07794 35.8451 2.50221 35.8959 3.27509L36.262 8.85259C36.3006 9.4397 36.8352 9.86681 37.4163 9.77477L43.0669 8.87986C43.8381 8.75772 44.4455 9.52711 44.1477 10.2489L42.0253 15.3933C41.7984 15.9433 42.0989 16.5685 42.67 16.7348L48.114 18.3206C48.8685 18.5404 49.0863 19.5045 48.4996 20.0273L44.3179 23.7534C43.8716 24.1511 43.8716 24.8489 44.3179 25.2466L48.4996 28.9727C49.0863 29.4955 48.8685 30.4596 48.114 30.6794L42.67 32.2652C42.0989 32.4315 41.7984 33.0567 42.0253 33.6067L44.1477 38.7511C44.4455 39.4729 43.8381 40.2423 43.0669 40.1201L37.4163 39.2252C36.8352 39.1332 36.3006 39.5603 36.262 40.1474L35.8959 45.7249C35.8451 46.4978 34.9729 46.9221 34.3335 46.4848L29.6163 43.2588C29.1349 42.9297 28.4751 43.0805 28.1847 43.5861L25.3671 48.4907C24.9827 49.1598 24.0173 49.1598 23.6329 48.4907L20.8153 43.5861C20.5249 43.0805 19.8651 42.9297 19.3837 43.2588L14.6665 46.4848C14.0271 46.9221 13.1549 46.4978 13.1041 45.7249L12.738 40.1474C12.6994 39.5603 12.1648 39.1332 11.5837 39.2252L5.93311 40.1201C5.16188 40.2423 4.55447 39.4729 4.85227 38.7511L6.9747 33.6067C7.20159 33.0567 6.9011 32.4315 6.32995 32.2652L0.885985 30.6794C0.131498 30.4596 -0.0863322 29.4955 0.500386 28.9727L4.6821 25.2466C5.12841 24.8489 5.12841 24.1511 4.6821 23.7534L0.500386 20.0273C-0.0863315 19.5045 0.131498 18.5404 0.885984 18.3206L6.32995 16.7348C6.9011 16.5685 7.20159 15.9433 6.9747 15.3933L4.85227 10.2489C4.55447 9.52711 5.16188 8.75772 5.93311 8.87986L11.5837 9.77477C12.1648 9.86681 12.6994 9.4397 12.738 8.85259L13.1041 3.27509C13.1549 2.50221 14.0271 2.07794 14.6665 2.51517L19.3838 5.74116C19.8651 6.07034 20.5249 5.9195 20.8153 5.41385L23.6329 0.509352Z" />
  </symbol>
<symbol id="icon-close" viewBox="0 0 32 32">
<path stroke-linejoin="round" stroke-linecap="round" stroke-miterlimit="4" stroke-width="1.7778" d="M24 8l-16 16"></path>
<path stroke-linejoin="round" stroke-linecap="round" stroke-miterlimit="4" stroke-width="1.7778" d="M8 8l16 16"></path>
</symbol>
</svg>
