<?xml version="1.0" standalone="no"?>
<!DOCTYPE svg PUBLIC "-//W3C//DTD SVG 20010904//EN"
 "http://www.w3.org/TR/2001/REC-SVG-20010904/DTD/svg10.dtd">
<svg version="1.0" xmlns="http://www.w3.org/2000/svg"
 width="595.000000pt" height="595.000000pt" viewBox="0 0 595.000000 595.000000"
 preserveAspectRatio="xMidYMid meet">
<metadata>
Created by potrace 1.14, written by Peter Selinger 2001-2017
</metadata>
<g transform="translate(0.000000,595.000000) scale(0.100000,-0.100000)"
fill="#000000" stroke="none">
<path d="M4 5528 l1 -93 90 0 90 0 3 93 3 92 -94 0 -94 0 1 -92z"/>
<path d="M747 5613 c-2 -5 -3 -47 -3 -95 l1 -88 -70 1 c-127 2 -115 12 -115
-94 l0 -94 -77 2 c-116 1 -109 7 -108 -95 0 -53 -4 -91 -10 -93 -5 -2 -47 -3
-92 -2 l-83 1 0 -93 0 -93 -27 -1 c-16 -1 -57 -2 -93 -3 l-65 -1 0 -280 0
-280 93 -3 92 -3 0 95 0 95 93 3 92 3 -1 91 0 91 88 1 c49 0 92 3 95 6 3 3 5
45 5 93 l-1 88 89 0 c50 0 91 2 91 5 1 3 3 46 4 95 l1 90 92 -1 92 0 1 85 c1
47 1 89 0 94 -1 8 2 8 109 10 l75 2 0 102 c0 69 3 99 10 93 14 -12 175 -10
176 1 0 5 1 38 1 74 0 36 -1 74 -1 85 -1 19 -8 20 -275 20 -151 0 -276 -3
-279 -7z"/>
<path d="M2230 5341 c0 -214 3 -280 13 -283 6 -2 48 -4 92 -4 l81 1 -1 -85
c-1 -47 2 -90 6 -95 5 -6 45 -10 96 -9 l88 2 -2 -94 -2 -94 93 0 94 0 0 283 0
282 -92 0 -91 0 -1 88 c0 48 -4 90 -7 93 -3 4 -46 7 -94 8 l-88 1 1 93 1 92
-93 0 -94 0 0 -279z"/>
<path d="M3344 5528 l1 -93 -85 -2 c-47 0 -89 -2 -95 -2 -6 -1 -9 -38 -8 -94
l2 -93 -77 -1 c-42 -1 -84 -2 -93 -2 -15 -1 -16 -30 -16 -281 l0 -280 93 0 93
0 -1 85 c-1 47 2 88 6 92 4 5 40 9 79 9 40 1 79 2 88 3 13 1 15 15 14 91 -1
50 1 91 4 91 3 1 44 2 91 3 l85 1 3 283 2 282 -93 0 -93 0 0 -92z"/>
<path d="M4455 5526 l0 -95 86 1 c47 1 90 -1 95 -4 5 -4 9 -46 8 -96 l-1 -90
91 1 91 1 2 -44 c1 -25 2 -68 2 -96 l1 -50 90 1 c50 1 90 -1 91 -4 1 -4 2 -43
3 -88 0 -45 5 -85 9 -90 5 -4 45 -8 90 -8 l82 0 2 -89 c1 -49 4 -91 7 -93 2
-2 44 -5 93 -5 l89 0 0 -91 -1 -92 93 -3 92 -3 0 -95 0 -95 93 3 92 3 0 281 1
281 -81 1 c-44 0 -86 0 -92 1 -10 1 -13 27 -13 94 l0 93 -92 0 -93 -1 1 93 c0
77 -2 92 -15 93 -9 1 -50 2 -91 3 l-75 1 -2 40 c-1 22 -2 65 -4 95 l-2 55 -91
0 -91 0 0 90 0 90 -280 3 -280 2 0 -94z"/>
<path d="M5572 5528 l3 -93 55 -1 c30 -1 71 -2 90 -3 l36 -1 -1 -90 c0 -104
-7 -98 108 -98 l77 0 1 31 c0 18 1 102 2 187 l0 155 -187 3 -187 2 3 -92z"/>
<path d="M1489 5035 c-2 -52 1 -157 5 -163 2 -4 37 -7 78 -6 109 3 103 8 102
-96 l-1 -90 31 -1 c17 -1 59 0 94 0 l63 1 -1 -62 c-1 -35 -1 -78 -1 -96 l1
-32 278 2 277 3 1 92 2 91 -92 0 -91 -1 -5 94 -5 94 -82 1 c-45 0 -86 4 -90 8
-4 4 -8 47 -8 94 l0 87 -277 0 c-272 0 -278 0 -279 -20z"/>
<path d="M3716 5050 c-1 -3 -2 -44 -1 -92 0 -53 -4 -88 -10 -89 -5 -1 -47 -1
-92 -2 l-83 0 0 -93 0 -94 -89 0 c-62 0 -90 -4 -93 -12 -3 -7 -4 -49 -4 -93
l1 -80 278 -3 277 -2 1 32 c0 18 0 61 -1 95 l-1 63 73 -1 c125 -2 114 -10 113
84 0 45 1 87 3 93 2 7 34 11 88 10 47 -1 88 3 91 8 5 7 7 111 4 169 -1 10 -61
12 -277 12 -152 0 -277 -2 -278 -5z"/>
<path d="M962 4302 l-32 -3 2 -282 3 -281 90 -1 90 0 0 -92 c0 -76 3 -93 15
-94 8 -1 51 -1 95 -1 l80 0 -2 -94 -2 -94 94 0 94 0 1 280 c0 218 -3 280 -12
281 -7 1 -44 3 -83 4 -38 1 -75 3 -81 4 -8 1 -11 33 -11 94 l0 92 -93 0 -94 0
1 93 c0 77 -3 92 -16 93 -9 0 -36 1 -61 2 -25 1 -60 1 -78 -1z"/>
<path d="M2688 4302 l-87 -3 1 -82 c1 -45 -1 -87 -4 -93 -4 -6 -40 -10 -84 -9
-47 0 -81 -4 -88 -11 -8 -7 -12 -43 -11 -95 l1 -84 -90 0 -91 0 -5 -95 -5 -95
-80 -1 c-44 0 -85 -1 -91 -2 -7 -1 -10 -35 -10 -94 l1 -92 -92 2 -93 1 -1 -72
c-1 -40 0 -82 1 -94 1 -21 -3 -22 -92 -25 l-93 -3 0 -92 0 -92 -55 0 c-30 1
-73 0 -95 0 l-40 -1 2 -92 1 -93 184 0 183 0 3 92 3 92 92 3 92 3 0 93 -1 92
93 0 93 0 0 94 0 94 78 0 c42 0 84 0 93 1 13 1 16 15 16 84 1 45 1 87 2 93 1
7 32 10 87 9 47 0 88 4 91 9 4 5 7 48 7 95 l1 86 90 0 90 0 1 188 c1 103 -1
188 -5 190 -3 1 -45 1 -93 -1z"/>
<path d="M3043 4302 l-71 -3 0 -184 c1 -102 4 -186 7 -186 3 -1 42 -3 86 -4
44 -2 83 -4 87 -4 3 -1 6 -39 6 -84 -1 -46 1 -88 4 -93 4 -5 44 -9 90 -8 45 0
85 -3 88 -8 3 -4 5 -44 4 -88 -2 -96 -2 -96 109 -94 l77 2 0 -94 0 -94 90 0
c65 0 90 -4 91 -12 1 -7 2 -49 3 -93 l1 -80 75 -2 c41 -1 83 -2 92 -2 15 -1
18 -14 20 -93 l3 -93 183 -1 c178 -1 182 0 183 20 3 63 0 158 -5 163 -3 3 -44
5 -91 5 -73 -1 -85 1 -86 16 -1 9 -1 52 -2 95 l0 77 -94 0 -94 0 2 93 2 92
-87 1 c-47 0 -89 4 -94 8 -4 4 -8 42 -8 84 -1 43 -2 82 -3 88 -1 8 -27 11 -80
9 -44 -1 -84 1 -90 4 -6 4 -11 47 -13 96 l-3 90 -90 0 -91 0 1 92 c0 57 -3 93
-10 94 -5 1 -48 2 -94 3 l-84 1 1 91 c1 106 7 101 -115 96z"/>
<path d="M4699 4302 l-56 -3 0 -92 1 -92 -92 0 c-55 0 -92 -4 -93 -10 -1 -5
-1 -47 -1 -92 0 -46 -3 -84 -6 -84 -4 -1 -43 -2 -87 -4 -44 -1 -83 -3 -87 -4
-3 0 -7 -127 -7 -281 l0 -280 94 0 93 0 0 68 c0 37 1 79 1 94 l1 27 86 -2 c47
-1 89 2 92 8 3 5 6 48 6 95 l1 85 70 1 c39 1 80 2 93 3 l22 1 0 279 0 279 -37
3 c-21 2 -63 3 -94 1z"/>
<path d="M377 3541 c-2 -3 -3 -44 -3 -91 l1 -85 93 -3 c63 -2 92 -7 93 -15 0
-7 1 -48 2 -92 l2 -80 90 -5 90 -5 0 -90 0 -90 279 0 280 0 -1 88 c0 48 -3 90
-6 93 -3 3 -44 6 -91 6 -57 0 -86 4 -87 12 0 6 -1 47 -2 91 l-2 80 -93 3 -93
3 1 72 c1 40 1 82 1 93 -1 21 -3 21 -276 22 -151 0 -277 -3 -278 -7z"/>
<path d="M4829 3491 c-1 -31 0 -73 1 -93 l1 -37 -93 -3 -93 -3 -2 -85 c-1 -47
-2 -88 -2 -93 -1 -4 -39 -7 -86 -5 -46 1 -87 -1 -91 -4 -7 -8 -11 -177 -4
-180 20 -6 546 -3 550 3 4 5 5 45 4 89 -1 44 2 82 6 85 4 2 46 5 93 6 l86 1 3
32 c2 17 1 55 -3 84 -3 29 -2 57 1 63 4 6 39 9 87 8 44 -1 84 1 89 4 5 3 9 45
9 94 l0 88 -277 1 -278 1 -1 -56z"/>
<path d="M5756 3266 l0 -95 -45 1 c-25 0 -68 -1 -94 -1 l-48 -1 3 -90 c2 -50
1 -91 -2 -91 -3 -1 -41 -3 -85 -4 -44 -2 -85 -4 -90 -4 -9 -1 -13 -123 -6
-177 1 -7 33 -10 91 -9 l90 1 0 -92 c0 -64 4 -93 13 -96 6 -3 47 -4 90 -3 42
0 78 -2 78 -5 1 -3 2 -42 3 -87 1 -45 5 -85 8 -89 8 -7 167 -8 175 0 5 4 8
863 4 924 -1 9 -27 12 -93 12 l-93 0 1 -94z"/>
<path d="M23 3172 l-23 -3 0 -282 0 -282 83 0 c45 0 87 3 93 7 6 4 10 43 9 95
l-1 89 92 -1 c76 -1 93 2 96 14 4 14 3 138 -1 166 -1 7 -35 10 -94 9 l-93 -2
1 94 c1 78 -2 94 -15 95 -102 3 -128 4 -147 1z"/>
<path d="M2853 3172 c-70 -3 -66 4 -65 -102 1 -87 2 -86 -85 -85 -43 0 -83 -1
-89 -3 -16 -5 -17 -182 -1 -183 6 -1 48 -2 92 -3 l80 -1 1 -87 c0 -48 3 -91 7
-95 10 -9 153 -11 169 -2 8 5 12 37 12 96 l1 88 90 0 90 0 1 62 c1 34 4 69 7
76 3 8 0 23 -8 33 -11 16 -25 19 -98 18 l-85 -1 1 93 2 92 -30 4 c-16 2 -58 2
-92 0z"/>
<path d="M751 2785 c-4 -5 -7 -46 -6 -90 1 -44 -2 -83 -7 -86 -4 -3 -46 -4
-93 -3 l-85 2 1 -90 c0 -49 -1 -92 -4 -94 -3 -3 -43 -5 -91 -5 -47 0 -87 -3
-87 -7 -5 -25 -4 -174 0 -177 7 -4 190 -8 206 -5 6 1 14 2 20 0 18 -3 317 -2
320 2 3 2 5 46 6 96 1 62 5 92 13 91 6 -1 48 -1 92 0 l82 1 -2 93 -1 92 93 0
92 0 1 30 c1 16 1 59 1 95 l1 65 -272 0 c-172 0 -275 -4 -280 -10z"/>
<path d="M1499 2790 c-7 -5 -13 -105 -10 -171 1 -13 16 -15 94 -14 l93 2 -2
-94 -2 -93 41 -1 c23 -1 65 -1 93 0 l51 1 1 -91 c1 -51 3 -94 5 -96 3 -2 44
-5 93 -6 l89 -2 0 -90 0 -90 93 -3 92 -3 0 -94 0 -94 90 2 c54 1 91 -2 91 -8
1 -5 3 -41 4 -80 2 -38 3 -77 4 -86 1 -14 15 -16 91 -15 l90 1 1 -35 c1 -19 1
-61 1 -92 0 -32 3 -58 6 -59 23 -3 159 -4 169 -1 17 5 16 369 -1 375 -6 1 -38
2 -71 0 -102 -4 -102 -4 -103 74 0 126 10 113 -92 113 -102 0 -91 -13 -94 112
0 36 -4 70 -8 73 -4 4 -46 7 -93 6 l-85 -2 0 96 0 96 -62 -1 c-35 -1 -77 -1
-94 -1 l-30 1 1 90 c1 57 -3 91 -9 91 -6 1 -47 2 -91 3 l-80 1 -5 95 -5 95
-173 0 c-95 0 -177 -2 -183 -5z"/>
<path d="M3918 2792 c-16 -3 -18 -16 -18 -96 l0 -92 -93 2 -93 2 1 -94 1 -94
-46 -1 c-25 0 -66 0 -92 1 l-48 1 0 -96 0 -96 -72 1 c-119 1 -113 7 -113 -96
l0 -89 -92 -3 -93 -3 -1 -27 c0 -15 -1 -57 -1 -93 l1 -66 -72 0 c-40 -1 -82
-1 -93 -2 -21 -1 -21 -4 -20 -188 l1 -187 90 0 90 0 0 95 0 94 85 -1 c47 0 90
3 96 8 7 5 10 42 9 95 l-2 88 94 -2 93 -1 0 94 0 94 90 0 c65 0 90 4 91 13 1
6 3 44 4 82 1 39 3 75 4 82 1 7 30 11 88 12 47 1 88 3 91 6 3 2 5 45 4 95 l0
91 72 -2 c125 -2 113 -12 112 94 l-1 93 82 -1 c45 -1 87 2 93 5 13 8 18 165 6
177 -7 7 -315 12 -348 5z"/>
<path d="M4459 2775 c-4 -69 -3 -123 2 -145 5 -24 9 -25 85 -26 43 -1 84 -2
89 -3 6 0 10 -38 9 -91 l-1 -90 93 0 92 0 0 -91 c0 -50 2 -93 5 -95 6 -7 226
-8 232 -2 3 3 20 2 38 -1 18 -4 48 -4 68 -1 19 4 43 4 52 1 9 -3 49 -4 89 -1
l73 5 0 90 0 90 -40 2 c-22 1 -63 2 -91 2 l-50 1 -3 53 c-2 28 -4 70 -5 92
l-1 40 -80 1 c-44 1 -85 2 -91 3 -7 1 -10 31 -10 81 1 44 -1 86 -4 93 -4 9
-70 12 -277 12 -266 0 -273 0 -274 -20z"/>
<path d="M1303 2328 l0 -93 -69 -3 c-38 -1 -78 -3 -89 -3 -28 0 -30 -8 -29
-104 l1 -86 -71 1 c-39 1 -81 1 -93 1 l-23 -1 0 -282 0 -283 92 0 93 1 0 92
c0 75 3 92 15 93 8 1 47 2 85 4 39 1 75 3 80 3 6 1 10 40 10 94 l0 92 92 -2
92 -2 0 285 0 285 -93 0 -92 0 -1 -92z"/>
<path d="M4271 2136 l-1 -284 83 0 c45 0 87 -1 94 -1 8 -1 11 -30 10 -93 l-1
-93 86 0 c48 0 90 -4 94 -8 5 -4 8 -47 8 -94 l1 -87 80 -1 c44 0 86 1 93 3 9
3 12 69 12 283 l0 279 -93 0 -93 0 1 86 c0 47 -2 90 -6 96 -4 5 -46 11 -95 12
l-88 1 0 90 -1 90 -92 2 -92 2 0 -283z"/>
<path d="M11 1660 c-4 -3 -7 -130 -7 -282 l0 -278 93 0 93 0 0 -95 0 -95 85 2
c47 1 88 -2 93 -6 4 -4 7 -47 7 -94 l0 -87 88 -1 c49 -1 90 -4 92 -6 2 -2 5
-44 7 -93 l3 -90 90 -1 90 0 1 -85 c1 -46 2 -89 3 -94 1 -11 529 -14 546 -3 9
5 10 40 6 154 l-1 30 -83 -1 c-45 -1 -86 0 -92 2 -6 2 -9 41 -9 93 1 77 -1 90
-15 91 -9 1 -51 1 -93 1 l-78 0 2 95 1 96 -84 -1 c-46 -1 -89 2 -94 6 -6 4
-11 44 -10 92 l0 85 -92 3 -93 3 2 83 c1 45 -2 88 -6 94 -4 7 -38 10 -94 9
l-88 -2 1 85 c1 47 0 90 -2 95 -2 7 -39 11 -91 10 l-87 0 -5 95 -5 95 -83 0
c-46 0 -87 -2 -91 -5z"/>
<path d="M5574 1661 c-2 -2 -4 -45 -4 -95 l0 -91 -90 1 c-57 0 -90 -3 -91 -10
-1 -6 -2 -45 -3 -88 0 -42 -4 -80 -8 -83 -4 -4 -43 -7 -87 -7 -46 1 -83 -4
-87 -9 -3 -6 -6 -49 -5 -95 l2 -84 -94 0 -93 0 0 -92 -1 -93 -86 -1 c-48 0
-89 -3 -92 -5 -2 -3 -5 -46 -6 -96 l-1 -90 -67 -1 c-36 0 -78 0 -93 -1 l-26
-1 2 -93 2 -93 -89 1 c-48 1 -90 -2 -93 -6 -4 -7 -8 -132 -5 -169 1 -13 38
-15 270 -15 148 0 273 4 278 8 4 5 8 48 8 95 l0 87 93 0 92 -1 1 66 c1 36 0
77 -1 93 -2 30 -3 29 127 28 31 0 53 5 56 12 2 7 3 47 2 90 0 43 2 80 6 83 4
2 46 5 93 5 l85 1 3 91 3 92 91 3 90 3 -1 277 c-1 152 -3 279 -4 282 -1 7
-171 7 -177 1z"/>
<path d="M1863 1468 c-2 -5 -4 -48 -4 -96 l1 -87 -93 0 -92 0 0 -93 0 -92 -92
0 -91 0 -4 -52 c-1 -29 -1 -72 2 -94 l5 -42 275 0 275 -1 0 92 0 92 92 3 92 3
3 92 3 92 75 2 c41 1 82 2 91 2 13 1 15 15 14 89 -2 48 -3 89 -4 92 -2 9 -542
7 -548 -2z"/>
<path d="M3352 1471 c-4 -3 -8 -45 -8 -93 0 -100 -12 -91 114 -89 l72 0 0 -94
0 -95 93 0 92 0 0 -93 0 -92 277 -2 277 -1 3 78 c5 117 10 110 -93 110 -64 0
-89 4 -90 13 -1 6 -2 48 -3 92 l-1 80 -95 0 -95 0 5 88 c3 49 3 92 0 96 -6 8
-536 10 -548 2z"/>
<path d="M2606 1282 c-2 -4 -4 -38 -4 -77 0 -38 -1 -78 -1 -87 -1 -15 -14 -18
-93 -20 l-93 -3 0 -92 0 -92 -75 0 c-41 0 -83 0 -93 0 -16 -1 -17 -19 -15
-283 l3 -283 75 0 c114 -1 107 -7 106 96 -1 53 2 90 9 92 5 2 47 3 93 2 53 -1
82 2 83 9 1 6 1 48 1 94 0 93 -15 82 118 85 l65 2 2 281 2 281 -89 1 c-49 0
-91 -2 -94 -6z"/>
<path d="M2974 1006 l1 -281 75 -2 c41 0 83 -2 92 -2 14 -1 16 -13 16 -86 -1
-47 2 -88 6 -92 4 -5 46 -8 94 -8 l86 0 0 -95 1 -95 90 0 90 0 3 283 2 282
-37 1 c-21 0 -63 2 -93 2 l-55 2 -1 80 c-1 44 -2 86 -3 93 -1 8 -26 12 -91 12
-86 0 -90 1 -91 23 0 12 -1 54 -2 92 l-2 70 -91 1 -91 1 1 -281z"/>
<path d="M5762 715 c-4 -5 -7 -48 -7 -95 l0 -85 -90 0 -90 0 0 -95 0 -95 183
0 c156 0 182 2 183 15 4 69 1 352 -5 357 -10 11 -167 9 -174 -2z"/>
<path d="M4 440 l1 -95 90 0 90 0 3 93 c1 50 -1 93 -5 93 -4 1 -47 2 -94 3
l-86 2 1 -96z"/>
</g>
</svg>
